<?xml version="1.0" encoding="iso-8859-1"?>
<!-- Generator: Adobe Illustrator 21.0.0, SVG Export Plug-In . SVG Version: 6.00 Build 0)  -->
<svg version="1.1" id="Layer_1" xmlns="http://www.w3.org/2000/svg" xmlns:xlink="http://www.w3.org/1999/xlink" x="0px" y="0px"
	 viewBox="0 0 100.353 100.353" style="enable-background:new 0 0 100.353 100.353;" xml:space="preserve">
<g>
	<path style="fill:#231F20;" d="M50.004,100C22.433,100,0.002,77.573,0.002,50.006C0.002,22.433,22.433,0,50.004,0
		c27.567,0,49.994,22.433,49.994,50.006C99.999,77.572,77.572,100,50.004,100z M50.004,2.912c-25.965,0-47.089,21.126-47.089,47.093
		c0,25.961,21.124,47.082,47.089,47.082c25.961,0,47.082-21.121,47.082-47.082C97.086,24.038,75.966,2.912,50.004,2.912z"/>
	<path style="fill:#231F20;" d="M42.967,71.992c-0.372,0-0.742-0.141-1.027-0.423c-0.571-0.567-0.573-1.489-0.006-2.06l19.379-19.49
		L41.937,30.643c-0.569-0.568-0.569-1.491,0-2.06c0.569-0.568,1.49-0.568,2.059,0l20.403,20.403
		c0.568,0.567,0.569,1.487,0.003,2.057L43.999,71.562C43.716,71.849,43.342,71.992,42.967,71.992z"/>
</g>
</svg>
